<svg xmlns="http://www.w3.org/2000/svg" version="1.1" xmlns:xlink="http://www.w3.org/1999/xlink" xmlns:svgjs="http://svgjs.com/svgjs" width="512" height="512" x="0" y="0" viewBox="0 0 512 512" style="enable-background:new 0 0 512 512" xml:space="preserve" class=""><g><path fill="#fedf30" d="M37.35 300c0-2.206 1.794-4 4-4h4.428l-.069-1.064c-.03-.468-.052-.939-.052-1.415V247.48c0-11.844 9.636-21.479 21.479-21.479h7.654v-18h77.418v71.463H389c27.019 0 49 21.981 49 49v102.541c39.156-43.425 63-100.928 63-164.004 0-135.31-109.69-245-245-245S11 131.69 11 267c0 39.808 9.503 77.393 26.35 110.625z" data-original="#fedf30" class=""></path><g fill="#fed402"><path d="M501 267c0-8.783-.472-17.456-1.374-26H362a5 5 0 0 1-5-5v-50.546a26.053 26.053 0 0 1-8.66 1.478h-15.269l-.125.856c-3.215 22.167-18.229 40.948-39.182 49.016l.239 1.926a13.847 13.847 0 0 1 11.999 11.252l.296 1.59 19.838 13.619a3.997 3.997 0 0 1 1.619 2.338l2.949 11.934H389c27.062 0 49 21.938 49 49v102.541c39.156-43.425 63-100.928 63-164.004zM184.244 267.529a3.995 3.995 0 0 1 1.62-2.338l19.837-13.619.296-1.589a13.846 13.846 0 0 1 11.999-11.252l.239-1.926c-20.954-8.067-35.967-26.849-39.182-49.016l-.125-.856H163.66c-.134 0-.636-.016-.636-.016l-1.024-.026V203c0 2.206-1.794 4-4 4h-5.791v72.463h29.086zM37.35 300c0-2.206 1.794-4 4-4h4.428l-.069-1.064c-.03-.468-.052-.939-.052-1.415V247.48c0-11.844 9.636-21.479 21.479-21.479h7.654v-1.288H14.648A246.443 246.443 0 0 0 11 267c0 39.808 9.503 77.393 26.35 110.625z" fill="#fed402" data-original="#fed402"></path></g><path fill="#ffffff" d="M389 278.463H152.209V300c0 2.206-1.794 4-4 4H104v155.122C145.769 492.22 198.568 512 256 512c72.775 0 138.127-31.742 183-82.123V328.463c0-27.614-22.386-50-50-50z" data-original="#ffffff"></path><path fill="#faf7f7" d="M389 278.463h-40c27.614 0 50 22.386 50 50V369h4a5 5 0 0 1 5 5v75a5 5 0 0 1-5 5h-4v11.918a246.454 246.454 0 0 0 40-36.041V328.463c0-27.614-22.386-50-50-50zM101.064 304l-.094.95v.057c-.401 5.576-5.344 9.993-11.25 9.993H67.137c-11.344 0-20.639-8.847-21.405-20H41.35a5 5 0 0 0-5 5v75.614c16.354 33.01 39.917 61.813 68.65 84.331V304z" data-original="#faf7f7"></path><path fill="#f9f3f1" d="m101.064 304-.094.95v.057c-.401 5.576-5.344 9.993-11.25 9.993H79.65v122.065A246.157 246.157 0 0 0 105 459.944V304z" data-original="#f9f3f1"></path><path fill="#faf7f7" d="m343.258 326.1-14.532-58.811a5.004 5.004 0 0 0-2.024-2.923l-20.663-14.186 5.471 29.372c.508 2.731.1 5.602-1.151 8.082L256 395.463l-54.36-107.829a12.83 12.83 0 0 1-1.15-8.082l5.471-29.372-20.663 14.186a4.998 4.998 0 0 0-2.024 2.923L168.742 326.1a5 5 0 0 0 1.613 5.007l31.187 26.542-13.73 8.613a5 5 0 0 0-1.673 6.735L251.67 486.5c1.924 3.333 6.736 3.333 8.66 0l65.53-113.502a4.999 4.999 0 0 0-1.673-6.735l-13.73-8.613 31.187-26.542a5 5 0 0 0 1.614-5.008z" data-original="#faf7f7"></path><path fill="#f9f3f1" d="m343.258 326.1-14.532-58.811a5.004 5.004 0 0 0-2.024-2.923l-20.663-14.186 2.434 13.065 1.634 1.122a4.998 4.998 0 0 1 2.024 2.923l14.532 58.811a5 5 0 0 1-1.613 5.007l-31.187 26.542 13.73 8.613a5 5 0 0 1 1.673 6.735l-61.562 106.629 3.968 6.872c1.924 3.333 6.736 3.333 8.66 0l65.53-113.502a4.999 4.999 0 0 0-1.673-6.735l-13.73-8.613 31.187-26.542a5 5 0 0 0 1.612-5.007z" data-original="#f9f3f1"></path><path fill="#eaf6ff" d="M296.283 316.426 256 289.469l-40.283 26.957-.059 1.236L256 397.684l40.342-80.022z" data-original="#eaf6ff"></path><path fill="#0593fc" d="m243.317 325.156.008-.043h25.35l.008.043.835-1.043 6.971-20.933L256 289.469l-20.489 13.711 6.971 20.933z" data-original="#0593fc"></path><path fill="#0182fc" d="m256 289.469-6.245 4.179 11.077 7.413a5 5 0 0 1 1.963 5.735l-5.767 17.317-.801 1h12.447l.007.043.835-1.044 6.971-20.932z" data-original="#0182fc"></path><path fill="#d8ecfe" d="M306.986 249.799a14.912 14.912 0 0 0-14.661-12.182h-.583a61.943 61.943 0 0 1-20.297 3.416h-30.891a61.948 61.948 0 0 1-20.297-3.416h-.583a14.913 14.913 0 0 0-14.661 12.182l-5.508 29.571a13.756 13.756 0 0 0 1.241 8.715l14.911 29.577L256 290.665l40.342 26.996 14.91-29.577a13.758 13.758 0 0 0 1.241-8.715z" data-original="#d8ecfe"></path><path fill="#c4e2ff" d="m312.493 279.37-5.508-29.571a14.912 14.912 0 0 0-14.661-12.182h-.583c-.638.221-1.291.41-1.939.61v23.984c0 2.4-.873 4.683-2.399 6.464l1.992 10.696a13.756 13.756 0 0 1-1.241 8.715l-9.084 18.019 17.271 11.557 14.91-29.576a13.756 13.756 0 0 0 1.242-8.716z" data-original="#c4e2ff"></path><path fill="#0182fc" d="m256 397.684 19.514-38.707-5.996-34.864h-27.036l-5.996 34.864z" data-original="#0182fc"></path><path fill="#0172fb" d="M269.518 324.113h-12.492l5.716 33.238a4.997 4.997 0 0 1-.463 3.098l-12.525 24.846L256 397.684l19.514-38.708z" data-original="#0172fb"></path><path fill="#f89580" d="M271.445 241.032h-30.891a62.02 62.02 0 0 1-18.358-2.766v23.944a9.944 9.944 0 0 0 4.312 8.195L256 290.665l29.491-20.26a9.94 9.94 0 0 0 4.312-8.195v-23.944a62.015 62.015 0 0 1-18.358 2.766z" data-original="#f89580" class=""></path><path fill="#ec806b" d="M271.445 241.032h-12.693v21.178a9.944 9.944 0 0 1-4.312 8.195l-13.965 9.594L256 290.665l29.491-20.26a9.94 9.94 0 0 0 4.312-8.195v-23.944a62.015 62.015 0 0 1-18.358 2.766z" data-original="#ec806b"></path><path fill="#bb5d4c" d="M301.875 55.05v26.608h1.935c16.473 0 29.875 13.402 29.875 29.875v15.397h14.654c4.799 0 9.297 1.3 13.173 3.557V77.529c0-30.403-24.647-55.05-55.05-55.05h-15.516c6.856 9.07 10.929 20.352 10.929 32.571z" data-original="#bb5d4c" class=""></path><path fill="#a44f3e" d="M306.463 22.479h-15.516l.045.062c29.253 1.296 52.573 25.415 52.573 54.988v49.401h4.774c4.799 0 9.297 1.3 13.173 3.557V77.529c.001-30.403-24.646-55.05-55.049-55.05z" data-original="#a44f3e" class=""></path><path fill="#bb5d4c" d="M163.66 126.931h14.654v-15.397c0-16.473 13.402-29.875 29.875-29.875h94.603V55.05c0-30.403-24.647-55.05-55.05-55.05h-42.205c-30.403 0-55.05 24.647-55.05 55.05v75.437a26.095 26.095 0 0 1 13.173-3.556z" data-original="#bb5d4c" class=""></path><path fill="#a44f3e" d="M247.742 0h-29.36c30.403 0 55.05 24.647 55.05 55.05v26.608h29.36V55.05C302.793 24.647 278.146 0 247.742 0z" data-original="#a44f3e" class=""></path><path fill="#f89580" d="M178.314 178.792v-52.778H163.66c-15.014 0-27.185 12.171-27.185 27.185v7.549c0 15.014 12.171 27.185 27.185 27.185h15.331a62.501 62.501 0 0 1-.677-9.141z" data-original="#f89580" class=""></path><path fill="#ec806b" d="M348.34 126.013h-14.654v52.778c0 3.105-.236 6.156-.677 9.141h15.331c15.014 0 27.185-12.171 27.185-27.185v-7.549c0-15.014-12.171-27.185-27.185-27.185z" data-original="#ec806b"></path><path fill="#ffb09e" d="M271.445 241.95h-30.89c-34.881 0-63.158-28.277-63.158-63.158v-67.258c0-17.007 13.786-30.793 30.793-30.793h95.621c17.006 0 30.793 13.786 30.793 30.793v67.258c-.001 34.881-28.277 63.158-63.159 63.158z" data-original="#ffb09e" class=""></path><path fill="#f89580" d="M303.811 80.74h-25.553c17.006 0 30.793 13.786 30.793 30.793v75.308c0 23.478-12.821 43.949-31.834 54.834 32.175-2.917 57.387-29.95 57.387-62.884v-67.258c0-17.006-13.787-30.793-30.793-30.793z" data-original="#f89580" class=""></path><path fill="#ec806b" d="M256 216.665c-9.946 0-19.893-3.786-27.464-11.358a7.5 7.5 0 0 1 0-10.606 7.5 7.5 0 0 1 10.606 0c9.296 9.295 24.42 9.295 33.716 0a7.5 7.5 0 0 1 10.606 0 7.5 7.5 0 0 1 0 10.606c-7.571 7.572-17.518 11.358-27.464 11.358zM256 181.375c-8.89 0-16.122-7.232-16.122-16.122s7.232-16.122 16.122-16.122a7.5 7.5 0 0 1 0 15 1.123 1.123 0 0 0 0 2.244 7.5 7.5 0 0 1 0 15zM218.841 152.924a7.5 7.5 0 0 1-7.5-7.5V132.58a7.5 7.5 0 0 1 15 0v12.845a7.5 7.5 0 0 1-7.5 7.499zM293.159 152.924a7.5 7.5 0 0 1-7.5-7.5V132.58a7.5 7.5 0 0 1 15 0v12.845a7.5 7.5 0 0 1-7.5 7.499z" data-original="#ec806b"></path><path fill="#bb5d4c" d="M230 117h-31a7.5 7.5 0 0 1 0-15h31a7.5 7.5 0 0 1 0 15zM313 117h-31a7.5 7.5 0 0 1 0-15h31a7.5 7.5 0 0 1 0 15z" data-original="#bb5d4c" class=""></path><path fill="#faf7f7" d="M403 454h-57a5 5 0 0 1-5-5v-75a5 5 0 0 1 5-5h57a5 5 0 0 1 5 5v75a5 5 0 0 1-5 5z" data-original="#faf7f7"></path><path fill="#f9f3f1" d="M403 369h-18a5 5 0 0 1 5 5v75a5 5 0 0 1-5 5h18a5 5 0 0 0 5-5v-75a5 5 0 0 0-5-5z" data-original="#f9f3f1"></path><path fill="#fe860a" d="M73.791 207v93a5 5 0 0 0 5 5h69.418a5 5 0 0 0 5-5v-93z" data-original="#fe860a"></path><path fill="#fe7701" d="M128 207v93a5 5 0 0 1-5 5h25.209a5 5 0 0 0 5-5v-93z" data-original="#fe7701"></path><path fill="#ffffff" d="M131 281.986H96a3 3 0 0 1-3-3v-52.973a3 3 0 0 1 3-3h35a3 3 0 0 1 3 3v52.973a3 3 0 0 1-3 3z" data-original="#ffffff"></path><path fill="#faf7f7" d="M131 223.014h-16a3 3 0 0 1 3 3v52.973a3 3 0 0 1-3 3h16a3 3 0 0 0 3-3v-52.973a3 3 0 0 0-3-3z" data-original="#faf7f7"></path><path fill="#ffffff" d="M158 177H69a5 5 0 0 0-5 5v21a5 5 0 0 0 5 5h89a5 5 0 0 0 5-5v-21a5 5 0 0 0-5-5z" data-original="#ffffff"></path><path fill="#faf7f7" d="M158 177h-15v15a5 5 0 0 1-5 5H64v6a5 5 0 0 0 5 5h89a5 5 0 0 0 5-5v-21a5 5 0 0 0-5-5z" data-original="#faf7f7"></path><path fill="#ffb09e" d="M101.969 235.985c.398 5.567-3.117 10.411-8.06 12.077 4.687 1.58 8.09 6.017 8.09 11.219s-3.403 9.639-8.09 11.219c4.687 1.58 8.09 6.017 8.09 11.219s-3.403 9.639-8.09 11.219c4.942 1.666 8.458 6.51 8.06 12.077-.448 6.272-5.962 10.985-12.25 10.985H67.137c-12.415 0-22.48-10.064-22.48-22.48v-46.04c0-12.415 10.064-22.48 22.48-22.48h22.582c6.288 0 11.802 4.713 12.25 10.985z" data-original="#ffb09e" class=""></path><path fill="#ffb09e" d="M101.969 235.985c.398 5.567-3.117 10.411-8.06 12.077 4.687 1.58 8.09 6.017 8.09 11.219s-3.403 9.639-8.09 11.219c4.687 1.58 8.09 6.017 8.09 11.219s-3.403 9.639-8.09 11.219c4.942 1.666 8.458 6.51 8.06 12.077-.448 6.272-5.962 10.985-12.25 10.985H67.137c-12.415 0-22.48-10.064-22.48-22.48v-46.04c0-12.415 10.064-22.48 22.48-22.48h22.582c6.288 0 11.802 4.713 12.25 10.985z" data-original="#ffb09e" class=""></path><path fill="#f89580" d="M102 281.719c0-5.202-3.403-9.639-8.09-11.219 4.687-1.58 8.09-6.017 8.09-11.219s-3.403-9.639-8.09-11.219c4.942-1.666 8.458-6.51 8.06-12.077-.449-6.272-5.963-10.985-12.251-10.985H67.137c-.22 0-.438.01-.656.017 7.131.176 12.861 5.999 12.861 13.173v64.621c0 7.174-5.73 12.997-12.861 13.173.219.006.436.016.656.016h22.582c6.288 0 11.802-4.713 12.25-10.985.398-5.567-3.117-10.411-8.06-12.077 4.688-1.579 8.091-6.017 8.091-11.219z" data-original="#f89580" class=""></path><path fill="#0ed290" d="M177 414h-16v-16a3 3 0 0 0-3-3h-17a3 3 0 0 0-3 3v16h-16a3 3 0 0 0-3 3v17a3 3 0 0 0 3 3h16v16a3 3 0 0 0 3 3h17a3 3 0 0 0 3-3v-16h16a3 3 0 0 0 3-3v-17a3 3 0 0 0-3-3z" data-original="#0ed290"></path><path fill="#00c285" d="M177 414h-6.5v10a3 3 0 0 1-3 3h-11a5 5 0 0 0-5 5v11a3 3 0 0 1-3 3H138v7a3 3 0 0 0 3 3h17a3 3 0 0 0 3-3v-16h16a3 3 0 0 0 3-3v-17a3 3 0 0 0-3-3z" data-original="#00c285"></path></g></svg>