<svg xmlns="http://www.w3.org/2000/svg" version="1.1" xmlns:xlink="http://www.w3.org/1999/xlink" xmlns:svgjs="http://svgjs.com/svgjs" width="512" height="512" x="0" y="0" viewBox="0 0 64 64" style="enable-background:new 0 0 512 512" xml:space="preserve" class=""><g><g data-name="11-boy"><path fill="#407ad6" d="m1 63 2.761-8.729A6 6 0 0 1 7.5 51.342L26 47h12l18.5 4.342a6 6 0 0 1 3.741 2.929L63 63z" data-original="#407ad6"></path><path fill="#f8ead3" d="M32 56c5.523 0 10-3.582 10-8v-.062L38 47H26l-4 .938V48c0 4.418 4.477 8 10 8z" data-original="#f8ead3"></path><path fill="#f0a47d" d="M38 47s0 5-6 5-6-5-6-5v-7h12z" data-original="#f0a47d"></path><path fill="#ffc19e" d="M21 15h22v18a10 10 0 0 1-10 10h-2a10 10 0 0 1-10-10V15z" data-original="#ffc19e"></path><path fill="#f0a47d" d="M43 31a4 4 0 0 0 0-8zM21 31a4 4 0 0 1 0-8z" data-original="#f0a47d"></path><g fill="#47323b"><path d="M32 19s-5 6-11 6-8-4-8-6S20 7 28 7c9 0 10 5 10 5s11-4 11 9c0 5-13 6-17-2z" fill="#47323b" data-original="#47323b" class=""></path><path d="M37 30a1 1 0 0 1-1-1v-2a1 1 0 0 1 2 0v2a1 1 0 0 1-1 1zM27 30a1 1 0 0 1-1-1v-2a1 1 0 0 1 2 0v2a1 1 0 0 1-1 1z" fill="#47323b" data-original="#47323b" class=""></path></g><path fill="#f0a47d" d="M32 40a5.318 5.318 0 0 1-4.895-2.553 1 1 0 0 1 1.784-.905A3.4 3.4 0 0 0 32 38a3.394 3.394 0 0 0 3.112-1.46 1.008 1.008 0 0 1 1.345-.42.993.993 0 0 1 .438 1.327A5.318 5.318 0 0 1 32 40zM32 35a3 3 0 0 1 0-6 1 1 0 0 1 0 2 1 1 0 0 0 0 2 1 1 0 0 1 0 2z" data-original="#f0a47d"></path></g></g></svg>